<svg width="25" height="25" viewBox="0 0 25 25" fill="none" xmlns="http://www.w3.org/2000/svg">
<g clip-path="url(#clip0)">
<path fill-rule="evenodd" clip-rule="evenodd" d="M20.2138 0C21.6165 0 22.7585 1.14203 22.7585 2.55715V24.8267L20.0896 22.4681L18.5876 21.0779L16.9987 19.6007L17.6566 21.8971H3.57989C2.17718 21.8971 1.03516 20.7551 1.03516 19.34V2.55715C1.03516 1.14203 2.17718 0 3.57989 0H20.2138V0ZM15.4222 16.2118C18.1656 16.1249 19.2207 14.325 19.2207 14.325C19.2207 10.3279 17.4332 7.08802 17.4332 7.08802C15.6457 5.74738 13.945 5.78462 13.945 5.78462L13.7712 5.98323C15.8815 6.62872 16.8622 7.55973 16.8622 7.55973C15.5712 6.85216 14.305 6.50459 13.1258 6.36804C12.232 6.26874 11.3755 6.29356 10.6183 6.39287L10.4072 6.4177C9.97276 6.45494 8.91763 6.61631 7.5894 7.19974C7.13011 7.41077 6.85701 7.55973 6.85701 7.55973C6.85701 7.55973 7.88732 6.57907 10.1217 5.93358L9.99759 5.78462C9.99759 5.78462 8.29696 5.74738 6.50944 7.08802C6.50944 7.08802 4.72192 10.3279 4.72192 14.325C4.72192 14.325 5.76464 16.1249 8.50799 16.2118C8.50799 16.2118 8.96728 15.6532 9.33968 15.1815C7.76319 14.7098 7.16735 13.7167 7.16735 13.7167L7.51492 13.9278L7.56458 13.965L7.61319 13.9929L7.62768 13.9991L7.6763 14.0271C7.98663 14.2009 8.29696 14.3374 8.58247 14.4491C9.09142 14.6477 9.69967 14.8464 10.4072 14.9829C11.3382 15.1567 12.4306 15.2188 13.6223 14.9953C14.2057 14.896 14.8016 14.7222 15.4222 14.4615C15.8567 14.3002 16.3408 14.0643 16.8498 13.7292C16.8498 13.7292 16.2291 14.7471 14.6029 15.2063C14.9753 15.6781 15.4222 16.2118 15.4222 16.2118ZM9.65002 10.4148C8.94246 10.4148 8.38386 11.0355 8.38386 11.7927C8.38386 12.5499 8.95487 13.1706 9.65002 13.1706C10.3576 13.1706 10.9162 12.5499 10.9162 11.7927C10.9286 11.0355 10.3576 10.4148 9.65002 10.4148ZM14.1809 10.4148C13.4733 10.4148 12.9147 11.0355 12.9147 11.7927C12.9147 12.5499 13.4857 13.1706 14.1809 13.1706C14.8884 13.1706 15.4471 12.5499 15.4471 11.7927C15.4471 11.0355 14.8884 10.4148 14.1809 10.4148Z" fill="url(#paint0_linear)"/>
</g>
<defs>
<linearGradient id="paint0_linear" x1="11.8968" y1="0" x2="11.8968" y2="24.8267" gradientUnits="userSpaceOnUse">
<stop offset="0.9999" stop-color="white"/>
<stop offset="1" stop-color="#27253C" stop-opacity="0"/>
</linearGradient>
<clipPath id="clip0">
<rect width="24.8267" height="24.8267" fill="white"/>
</clipPath>
</defs>
</svg>
