<svg width="230" height="79" viewBox="0 0 230 79" fill="none" xmlns="http://www.w3.org/2000/svg">
<path d="M36.5635 14.4482C28.7328 27.9857 28.0043 29.2581 28 29.339C28 29.3603 28.9714 29.373 30.1643 29.373L32.3244 29.3688L38.6298 18.4571C42.0936 12.4565 44.9396 7.55389 44.9566 7.56665C44.9694 7.57942 47.8069 12.4863 51.2664 18.4699L57.5591 29.3518L59.7361 29.3645L61.9132 29.373L61.8621 29.2581C61.8025 29.1262 45.0077 0.0467682 44.9609 -4.3869e-05C44.9438 -0.0213242 41.1648 6.48144 36.5635 14.4482Z" fill="white"/>
<path d="M28.0338 30.1305C28.0338 30.1517 27.9997 30.2028 27.9571 30.2496C27.889 30.322 0 78.548 0 78.5948C0 78.6246 24.0716 78.6076 24.3059 78.5778L24.5189 78.548L25.8652 76.6967L27.2115 74.8455L16.9012 74.8327C7.11071 74.8242 6.59519 74.8199 6.61649 74.7476C6.62501 74.7093 12.0145 65.368 18.5926 53.9924L30.5475 33.3095L44.4281 33.2882C52.0585 33.2755 58.3086 33.2669 58.3129 33.2669C58.3172 33.2669 58.0573 33.6329 57.7335 34.0755C45.8851 50.358 25.4392 78.5437 25.4562 78.565C25.4733 78.5778 40.2017 78.5948 58.1851 78.6033C88.6388 78.6118 90.8841 78.6076 90.8585 78.5437C90.833 78.4799 63.5575 31.2668 63.059 30.4284L62.8631 30.0964H45.4506C35.8688 30.0964 28.0338 30.1134 28.0338 30.1305ZM72.6834 54.652C79.0656 65.6871 84.2932 74.7433 84.3017 74.7689C84.3187 74.8114 79.0358 74.8242 57.9635 74.8242C34.237 74.8242 31.6041 74.8157 31.6296 74.7604C31.6424 74.7221 38.2419 65.6148 46.2984 54.5201L60.9373 34.3479L61.014 34.4671C61.0524 34.5309 66.3055 43.6169 72.6834 54.652Z" fill="white"/>
<path d="M190.776 8.17762C190.088 8.52926 189.798 9.49164 190.151 10.2504C190.568 11.1295 191.899 11.2683 192.587 10.491C192.768 10.2875 192.931 10.0191 192.968 9.88955C193.058 9.51015 192.949 8.82538 192.759 8.55702C192.361 8.0018 191.464 7.83524 190.776 8.17762Z" fill="white"/>
<path d="M182.077 36.1412C181.918 36.6118 178.059 58.2 178.01 58.8941C177.912 60.3882 178.547 61.5412 179.659 61.8588C179.976 61.9529 181.051 62 182.664 62C185.18 62 185.192 62 185.241 61.7294C185.534 60.3412 185.448 60.2353 183.983 60.2353C182.871 60.2353 182.163 60.0941 181.992 59.8588C181.943 59.7765 181.894 59.4941 181.894 59.2353C181.894 58.9765 182.847 53.7294 184.019 47.5882C185.949 37.4235 186.12 36.3882 185.949 36.2C185.79 36.0235 185.522 36 183.946 36C182.602 36 182.114 36.0353 182.077 36.1412Z" fill="white"/>
<path d="M147.293 41.1184C146.146 41.3528 145.663 41.9944 146.252 42.5003C146.946 43.0864 149.165 43.1789 150.312 42.6607C150.614 42.525 150.886 42.3461 150.946 42.2597C151.097 42.0068 150.916 41.5503 150.599 41.3713C149.935 41.0012 148.44 40.8902 147.293 41.1184Z" fill="white"/>
<path d="M116.092 45.0801C115.219 45.3362 114.989 45.7259 110.807 53.7984C106.292 62.5389 106.487 61.9933 107.866 61.9933H108.647L109.601 60.1561L110.543 58.3189H113.806H117.069L117.126 58.5639C117.161 58.7086 117.31 59.5326 117.448 60.4011L117.712 61.9933H119.229C120.539 61.9933 120.757 61.971 120.929 61.7929C121.102 61.5924 121.033 61.1137 119.861 54.0545C118.528 46.0488 118.459 45.7482 117.77 45.2583C117.414 45.0022 116.609 44.9243 116.092 45.0801ZM115.598 49.0997C115.598 49.1776 115.863 50.8143 116.173 52.7406C116.494 54.6668 116.747 56.3259 116.747 56.4372C116.747 56.6376 116.598 56.6488 114.105 56.6488C112.657 56.6488 111.462 56.6265 111.462 56.5931C111.462 56.5597 112.347 54.8339 113.415 52.7517C115.162 49.3669 115.598 48.6431 115.598 49.0997Z" fill="white"/>
<path d="M171.092 45.0801C170.219 45.3362 169.989 45.7259 165.807 53.7984C161.292 62.5389 161.487 61.9933 162.866 61.9933H163.647L164.601 60.1561L165.543 58.3189H168.806H172.069L172.126 58.5639C172.161 58.7086 172.31 59.5326 172.448 60.4011L172.712 61.9933H174.229C175.539 61.9933 175.757 61.971 175.929 61.7929C176.102 61.5924 176.033 61.1137 174.861 54.0545C173.528 46.0488 173.459 45.7482 172.77 45.2583C172.414 45.0022 171.609 44.9243 171.092 45.0801ZM170.598 49.0997C170.598 49.1776 170.863 50.8143 171.173 52.7406C171.494 54.6668 171.747 56.3259 171.747 56.4372C171.747 56.6376 171.598 56.6488 169.105 56.6488C167.657 56.6488 166.462 56.6265 166.462 56.5931C166.462 56.5597 167.347 54.8339 168.415 52.7517C170.162 49.3669 170.598 48.6431 170.598 49.0997Z" fill="white"/>
<path d="M99.4817 45.062C96.1985 45.4994 93.4168 47.4897 91.9576 50.4313C91.228 51.8748 91 52.859 91 54.4665C91.0114 57.769 92.4136 60.0764 95.1953 61.3012C96.4949 61.8807 97.5095 62.0448 99.4475 61.9901C101.819 61.9136 103.016 61.5199 104.566 60.2842C105.205 59.7921 105.216 59.4749 104.6 58.8954L104.156 58.4798L103.495 58.9172C101.762 60.0764 100.12 60.5029 98.3303 60.2623C96.3353 59.9889 95.1611 58.8298 94.7393 56.7192C94.3859 54.9586 94.6253 52.5747 95.3321 50.8906C96.0161 49.2394 97.3955 47.7303 98.7863 47.096C99.5045 46.768 99.5729 46.757 101.135 46.757H102.731L103.586 47.1616C104.053 47.3803 104.749 47.8396 105.136 48.1677C105.512 48.5067 105.866 48.7801 105.9 48.7801C105.934 48.7801 106.196 48.627 106.481 48.4301C107.234 47.9162 107.188 47.6756 106.208 46.7789C105.353 46.0134 104.384 45.4994 103.301 45.2261C102.446 45.0183 100.439 44.9308 99.4817 45.062Z" fill="white"/>
<path d="M197.025 12.2629C196.585 12.4746 196.413 12.6529 196.095 13.2434C195.74 13.8897 195.569 14.6252 194.346 20.932C193.612 24.7651 193 28.03 193 28.186C193 28.6094 193.257 28.732 194.052 28.6985L194.762 28.6651L195.887 22.7371C196.499 19.4723 197.049 16.7089 197.098 16.6086C197.16 16.4303 197.196 16.4303 197.282 16.5752C197.331 16.6643 198.285 19.4723 199.411 22.804C200.524 26.1357 201.454 28.8768 201.478 28.8991C201.49 28.9103 201.674 28.9437 201.87 28.9883C202.237 29.0551 202.237 29.044 206.678 22.882C209.112 19.4946 211.253 16.5974 211.412 16.4637C211.694 16.2186 211.718 16.2186 211.718 16.4192C211.718 16.5306 211.216 19.2494 210.593 22.4586C209.761 26.8043 209.504 28.342 209.602 28.4757C209.712 28.6428 209.981 28.6651 211.473 28.6651H213.235L214.605 21.5894C215.364 17.7006 215.988 14.2352 216 13.9009C216 13.0763 215.706 12.5749 215.021 12.2517C214.434 11.9843 213.761 11.9397 213.015 12.1292C212.073 12.3632 211.437 13.1097 207.607 18.3691C204.806 22.2023 203.925 23.3277 203.864 23.1828C203.815 23.0714 203.13 20.9543 202.347 18.4694C201.564 15.9957 200.805 13.7337 200.646 13.444C199.924 12.1626 198.334 11.6389 197.025 12.2629Z" fill="white"/>
<path d="M95.2311 12.081C95.2194 12.1388 95.1724 12.4048 95.1136 12.6939C95.0431 13.0871 95.0549 13.2721 95.1841 13.4687L95.3487 13.7347H98.9214C102.976 13.7347 102.952 13.7347 102.553 14.5095C102.435 14.7524 99.9908 17.9673 97.1233 21.6449C92.3283 27.8088 91.917 28.3639 92.011 28.6415L92.1168 28.9422L98.4865 28.9769L104.856 29L104.939 28.3408C105.068 27.2653 105.315 27.3347 101.013 27.2653C96.8882 27.2075 96.7942 27.1844 97.1703 26.6061C97.2878 26.4327 99.4267 23.7034 101.918 20.5578C104.41 17.4122 106.572 14.6136 106.725 14.3476C107.019 13.8156 107.089 13.1102 106.878 12.7054C106.795 12.5667 106.56 12.3469 106.361 12.2313C106.008 12.0116 105.726 12 100.614 12C97.6521 12 95.2311 12.0347 95.2311 12.081Z" fill="white"/>
<path d="M112.178 12.1938C111.388 12.4485 110.793 12.9809 110.465 13.6985C110.174 14.3583 108.012 25.8633 108 26.8008C108 27.6111 108.279 28.2014 108.85 28.618L109.275 28.9306L114.169 28.9653L119.051 29L119.136 28.294C119.197 27.8194 119.173 27.5416 119.075 27.4259C118.966 27.2985 118.298 27.2638 115.736 27.2291C112.615 27.1944 112.518 27.1828 112.263 26.9397C111.91 26.6157 111.923 26.3957 112.493 23.4327L112.955 21.0599L116.185 21.0252L119.415 21.002L119.537 20.3423C119.634 19.8098 119.622 19.6247 119.476 19.4163C119.294 19.1501 119.282 19.1501 116.331 19.1501C113.611 19.1501 113.368 19.1385 113.368 18.9533C113.368 18.4672 114.121 14.6592 114.278 14.312C114.376 14.1036 114.594 13.8837 114.776 13.8258C114.946 13.7564 116.562 13.7101 118.468 13.7101H121.856L121.941 13.0503C122.075 11.9623 122.403 12.0318 117.302 12.0086C113.222 11.9855 112.76 11.9971 112.178 12.1938Z" fill="white"/>
<path d="M126.178 12.1938C125.388 12.4485 124.793 12.9809 124.465 13.6985C124.174 14.3583 122.012 25.8633 122 26.8008C122 27.6111 122.279 28.2014 122.85 28.618L123.275 28.9306L128.169 28.9653L133.051 29L133.136 28.294C133.197 27.8194 133.173 27.5416 133.075 27.4259C132.966 27.2985 132.298 27.2638 129.736 27.2291C126.615 27.1944 126.518 27.1828 126.263 26.9397C125.91 26.6157 125.923 26.3957 126.493 23.4327L126.955 21.0599L130.185 21.0252L133.415 21.002L133.537 20.3423C133.634 19.8098 133.622 19.6247 133.476 19.4163C133.294 19.1501 133.282 19.1501 130.331 19.1501C127.611 19.1501 127.368 19.1385 127.368 18.9533C127.368 18.4672 128.121 14.6592 128.278 14.312C128.376 14.1036 128.594 13.8837 128.776 13.8258C128.946 13.7564 130.562 13.7101 132.468 13.7101H135.856L135.941 13.0503C136.075 11.9623 136.403 12.0318 131.302 12.0086C127.222 11.9855 126.76 11.9971 126.178 12.1938Z" fill="white"/>
<path d="M149.98 23.7412C148.237 33.4824 147.902 35.5059 148.022 35.7059C148.153 35.9176 148.32 35.9412 149.944 35.9765L151.723 36L152.296 32.7412C152.618 30.9412 152.916 29.4353 152.952 29.3882C153 29.3529 154.456 29.2941 156.199 29.2588C159.793 29.2 160.557 29.0706 162.371 28.2353C165.833 26.6353 167.743 23.8588 167.982 20.0588C168.197 16.5529 166.478 13.7882 163.386 12.6235C161.918 12.0824 161.13 12.0118 156.438 12H152.081L149.98 23.7412ZM161.392 14.0941C162.526 14.6118 163.35 15.6941 163.732 17.1765C163.995 18.1882 163.923 20.7765 163.625 21.9176C162.92 24.4941 161.153 26.4941 158.957 27.2C158.288 27.4118 157.799 27.4588 155.674 27.5059L153.179 27.5529L153.251 27.2824C153.286 27.1294 153.836 24.0824 154.468 20.5294C155.101 16.9647 155.638 13.9882 155.674 13.9059C155.71 13.7765 156.235 13.7529 158.253 13.7882C160.604 13.8235 160.843 13.8471 161.392 14.0941Z" fill="white"/>
<path d="M170.484 20.122C169.669 24.5931 169 28.3479 169 28.475C169 28.9487 169.207 28.9949 171.067 28.9949H172.831L173.548 25.0899C173.949 22.9525 174.302 21.0924 174.351 20.9769C174.412 20.8151 175.032 21.8434 176.71 24.8819L178.996 28.9949H180.991C183.788 28.9949 183.751 29.3068 181.343 25.0668C180.297 23.2182 179.458 21.6816 179.47 21.6701C179.495 21.647 179.957 21.543 180.492 21.439C182.523 21.0578 184.104 19.9602 184.7 18.5045C185.077 17.6149 185.101 15.8241 184.76 14.9345C184.274 13.7099 183.313 12.8203 181.951 12.335C181.246 12.0809 181.039 12.0693 176.601 12.0347L171.979 12L170.484 20.122ZM180.006 14.0218C181.1 14.4608 181.586 15.3158 181.586 16.7484C181.574 17.8691 181.307 18.5507 180.614 19.163C179.823 19.8447 179.203 19.9833 176.771 19.9833C174.959 19.9833 174.716 20.0064 174.606 20.1797C174.533 20.2953 174.472 20.3299 174.472 20.2721C174.472 20.122 175.567 14.0796 175.64 13.8716C175.725 13.629 179.337 13.7561 180.006 14.0218Z" fill="white"/>
<path d="M189.013 12.2544C188.975 12.4048 188.265 16.1054 187.414 20.4884C186.209 26.768 185.917 28.5259 186.019 28.734C186.146 29 186.196 29 188.061 29C189.102 29 189.965 28.9769 189.965 28.9422C189.965 28.9075 190.675 25.1721 191.551 20.6503C193.023 12.9714 193.124 12.4048 192.921 12.2082C192.744 12.0231 192.49 12 190.904 12C189.115 12 189.077 12 189.013 12.2544Z" fill="white"/>
<path d="M220.879 12.1938C220.146 12.4485 219.594 12.9809 219.289 13.6985C219.019 14.3583 217.011 25.8633 217 26.8008C217 27.6111 217.259 28.2014 217.789 28.618L218.184 28.9306L222.729 28.9653L227.262 29L227.341 28.294C227.397 27.8194 227.374 27.5416 227.284 27.4259C227.183 27.2985 226.563 27.2638 224.183 27.2291C221.285 27.1944 221.195 27.1828 220.958 26.9397C220.631 26.6157 220.642 26.3957 221.172 23.4327L221.601 21.0599L224.6 21.0252L227.6 21.002L227.713 20.3423C227.803 19.8098 227.792 19.6247 227.656 19.4163C227.487 19.1501 227.476 19.1501 224.736 19.1501C222.21 19.1501 221.984 19.1385 221.984 18.9533C221.984 18.4672 222.683 14.6592 222.83 14.312C222.92 14.1036 223.123 13.8837 223.292 13.8258C223.45 13.7564 224.95 13.7101 226.72 13.7101H229.867L229.946 13.0503C230.07 11.9623 230.374 12.0318 225.638 12.0086C221.849 11.9855 221.42 11.9971 220.879 12.1938Z" fill="white"/>
<path d="M122.98 56.7412C121.237 66.4824 120.902 68.5059 121.022 68.7059C121.153 68.9176 121.32 68.9412 122.944 68.9765L124.723 69L125.296 65.7412C125.618 63.9412 125.916 62.4353 125.952 62.3882C126 62.3529 127.456 62.2941 129.199 62.2588C132.793 62.2 133.557 62.0706 135.371 61.2353C138.833 59.6353 140.743 56.8588 140.982 53.0588C141.197 49.5529 139.478 46.7882 136.386 45.6235C134.918 45.0824 134.13 45.0118 129.438 45H125.081L122.98 56.7412ZM134.392 47.0941C135.526 47.6118 136.35 48.6941 136.732 50.1765C136.995 51.1882 136.923 53.7765 136.625 54.9176C135.92 57.4941 134.153 59.4941 131.957 60.2C131.288 60.4118 130.799 60.4588 128.674 60.5059L126.179 60.5529L126.251 60.2824C126.286 60.1294 126.836 57.0824 127.468 53.5294C128.101 49.9647 128.638 46.9882 128.674 46.9059C128.71 46.7765 129.235 46.7529 131.253 46.7882C133.604 46.8235 133.843 46.8471 134.392 47.0941Z" fill="white"/>
<path d="M145.013 45.2544C144.975 45.4048 144.265 49.1054 143.414 53.4884C142.209 59.768 141.917 61.5259 142.019 61.734C142.146 62 142.196 62 144.061 62C145.102 62 145.965 61.9769 145.965 61.9422C145.965 61.9075 146.675 58.1721 147.551 53.6503C149.023 45.9714 149.124 45.4048 148.921 45.2082C148.744 45.0231 148.49 45 146.904 45C145.115 45 145.077 45 145.013 45.2544Z" fill="white"/>
<path d="M152.049 45.6592C151.913 46.6769 151.9 46.6769 154.222 46.7116C156.196 46.7347 156.221 46.7463 156.221 47.0007C156.221 47.1395 155.6 50.4816 154.855 54.4252C153.589 61.0748 153.514 61.5952 153.7 61.7918C153.874 61.9769 154.123 62 155.674 62C157.251 62 157.45 61.9769 157.512 61.7918C157.549 61.6878 158.195 58.2878 158.952 54.2517C159.722 50.2156 160.38 46.8735 160.429 46.8272C160.466 46.781 161.484 46.7231 162.676 46.7116L164.849 46.6769L164.948 46.0639C165.035 45.5435 165.023 45.4048 164.836 45.2197C164.638 45.0116 164.389 45 158.381 45H152.136L152.049 45.6592Z" fill="white"/>
</svg>
